<svg width="407" height="400" viewBox="0 0 407 400" fill="none" xmlns="http://www.w3.org/2000/svg">
<g clip-path="url(#clip0_1005_113)">
<path d="M155.901 56.1501C155.379 54.5363 156.264 52.8018 157.888 52.3123C191.495 42.182 227.594 43.8644 260.155 57.1353C293.666 70.793 321.276 95.847 338.115 127.877C354.954 159.907 359.939 196.856 352.192 232.203C344.445 267.551 324.463 299.027 295.77 321.078C267.078 343.129 231.52 354.338 195.369 352.728C159.218 351.118 124.798 336.791 98.1798 312.277C71.5618 287.762 54.457 254.634 49.8831 218.738C45.4386 183.858 53.1029 148.542 71.5405 118.674C72.4314 117.231 74.3351 116.822 75.7603 117.742C77.1854 118.661 77.5922 120.561 76.7025 122.004C59.049 150.655 51.7143 184.517 55.9758 217.962C60.3668 252.422 76.7874 284.225 102.341 307.759C127.894 331.293 160.938 345.046 195.643 346.592C230.348 348.138 264.483 337.377 292.028 316.208C319.572 295.039 338.755 264.822 346.193 230.888C353.63 196.954 348.844 161.484 332.678 130.735C316.513 99.9863 290.007 75.9345 257.837 62.8231C226.616 50.0984 192.007 48.4719 159.778 58.1576C158.154 58.6458 156.423 57.7639 155.901 56.1501Z" fill="white"/>
<path d="M120.976 308.285C120.059 309.517 118.316 309.775 117.102 308.834C100.831 296.212 87.5575 280.126 78.2534 261.729C68.5307 242.505 63.4089 221.284 63.292 199.742C63.1751 178.199 68.0664 156.924 77.5799 137.596C87.0933 118.267 100.969 101.414 118.111 88.3662C135.253 75.3185 155.193 66.4332 176.357 62.4115C197.522 58.3898 219.331 59.3418 240.064 65.1924C260.797 71.0429 279.887 81.6319 295.827 96.1237C311.081 109.992 323.051 127.07 330.883 146.115C331.467 147.536 330.754 149.148 329.323 149.703C327.891 150.259 326.283 149.547 325.698 148.127C318.178 129.886 306.703 113.526 292.087 100.238C276.784 86.3261 258.458 76.1607 238.554 70.5442C218.65 64.9277 197.713 64.0138 177.395 67.8746C157.078 71.7354 137.935 80.2652 121.479 92.791C105.022 105.317 91.702 121.496 82.5691 140.051C73.4361 158.607 68.7405 179.031 68.8527 199.712C68.9649 220.392 73.8819 240.764 83.2156 259.219C92.1308 276.847 104.842 292.265 120.423 304.372C121.635 305.314 121.893 307.053 120.976 308.285Z" fill="white"/>
<path d="M119.49 257.77C115.943 257.77 112.63 257.117 109.55 255.81C106.517 254.503 103.857 252.707 101.57 250.42C99.33 248.087 97.5567 245.403 96.25 242.37C94.99 239.29 94.36 236 94.36 232.5C94.36 229 94.99 225.733 96.25 222.7C97.5567 219.62 99.33 216.937 101.57 214.65C103.857 212.317 106.517 210.497 109.55 209.19C112.63 207.883 115.943 207.23 119.49 207.23C121.917 207.23 124.25 207.51 126.49 208.07C128.777 208.63 130.923 209.47 132.93 210.59C134.937 211.71 136.757 213.11 138.39 214.79L136.29 217.24C134.283 215.047 131.763 213.343 128.73 212.13C125.743 210.87 122.663 210.24 119.49 210.24C116.363 210.24 113.47 210.823 110.81 211.99C108.197 213.11 105.887 214.697 103.88 216.75C101.92 218.757 100.38 221.113 99.26 223.82C98.1867 226.48 97.65 229.373 97.65 232.5C97.65 235.627 98.1867 238.543 99.26 241.25C100.38 243.91 101.92 246.267 103.88 248.32C105.887 250.327 108.197 251.913 110.81 253.08C113.47 254.2 116.363 254.76 119.49 254.76C122.663 254.76 125.743 254.13 128.73 252.87C131.763 251.61 134.283 249.907 136.29 247.76L138.39 250.21C136.757 251.89 134.937 253.29 132.93 254.41C130.923 255.53 128.777 256.37 126.49 256.93C124.25 257.49 121.917 257.77 119.49 257.77ZM160.587 257.7C157.414 257.7 154.52 256.907 151.907 255.32C149.294 253.733 147.217 251.587 145.677 248.88C144.184 246.127 143.437 243.093 143.437 239.78C143.437 236.42 144.184 233.387 145.677 230.68C147.217 227.973 149.294 225.827 151.907 224.24C154.52 222.653 157.414 221.86 160.587 221.86C163.807 221.86 166.7 222.653 169.267 224.24C171.88 225.827 173.934 227.973 175.427 230.68C176.967 233.387 177.737 236.42 177.737 239.78C177.737 243.093 176.967 246.127 175.427 248.88C173.934 251.587 171.88 253.733 169.267 255.32C166.7 256.907 163.807 257.7 160.587 257.7ZM160.587 254.76C163.2 254.76 165.557 254.107 167.657 252.8C169.804 251.447 171.484 249.65 172.697 247.41C173.957 245.123 174.587 242.58 174.587 239.78C174.587 236.98 173.957 234.46 172.697 232.22C171.484 229.933 169.804 228.137 167.657 226.83C165.557 225.477 163.2 224.8 160.587 224.8C157.974 224.8 155.594 225.477 153.447 226.83C151.347 228.137 149.667 229.933 148.407 232.22C147.194 234.46 146.587 236.98 146.587 239.78C146.587 242.58 147.194 245.123 148.407 247.41C149.667 249.65 151.347 251.447 153.447 252.8C155.594 254.107 157.974 254.76 160.587 254.76ZM185.653 257V222.56H188.733V227.39C191.533 223.703 195.336 221.86 200.143 221.86C202.756 221.86 205.043 222.42 207.003 223.54C209.009 224.613 210.549 226.153 211.623 228.16C212.743 230.12 213.303 232.407 213.303 235.02V257H210.223V235.86C210.223 232.407 209.266 229.7 207.353 227.74C205.439 225.733 202.803 224.73 199.443 224.73C197.109 224.73 195.009 225.29 193.143 226.41C191.276 227.483 189.806 229.047 188.733 231.1V257H185.653ZM233.446 257.7C230.833 257.7 228.826 257.047 227.426 255.74C226.026 254.433 225.326 252.613 225.326 250.28V225.36H217.766V222.56H225.326V213.88L228.406 212.9V222.56H239.046V225.36H228.406V249.23C228.406 251.19 228.826 252.613 229.666 253.5C230.553 254.34 232 254.76 234.006 254.76C235.08 254.76 235.99 254.69 236.736 254.55C237.483 254.363 238.253 254.107 239.046 253.78V256.79C238.16 257.117 237.25 257.35 236.316 257.49C235.383 257.63 234.426 257.7 233.446 257.7ZM245.059 256.93V222.49H248.139V227.95C249.119 226.037 250.449 224.543 252.129 223.47C253.855 222.35 255.792 221.79 257.939 221.79C258.872 221.79 259.875 221.883 260.949 222.07V225.22C260.435 225.033 259.922 224.917 259.409 224.87C258.895 224.777 258.405 224.73 257.939 224.73C255.652 224.73 253.669 225.43 251.989 226.83C250.355 228.183 249.072 230.167 248.139 232.78V256.93H245.059ZM279.327 257.7C276.154 257.7 273.261 256.907 270.647 255.32C268.034 253.733 265.957 251.587 264.417 248.88C262.924 246.127 262.177 243.093 262.177 239.78C262.177 236.42 262.924 233.387 264.417 230.68C265.957 227.973 268.034 225.827 270.647 224.24C273.261 222.653 276.154 221.86 279.327 221.86C282.547 221.86 285.441 222.653 288.007 224.24C290.621 225.827 292.674 227.973 294.167 230.68C295.707 233.387 296.477 236.42 296.477 239.78C296.477 243.093 295.707 246.127 294.167 248.88C292.674 251.587 290.621 253.733 288.007 255.32C285.441 256.907 282.547 257.7 279.327 257.7ZM279.327 254.76C281.941 254.76 284.297 254.107 286.397 252.8C288.544 251.447 290.224 249.65 291.437 247.41C292.697 245.123 293.327 242.58 293.327 239.78C293.327 236.98 292.697 234.46 291.437 232.22C290.224 229.933 288.544 228.137 286.397 226.83C284.297 225.477 281.941 224.8 279.327 224.8C276.714 224.8 274.334 225.477 272.187 226.83C270.087 228.137 268.407 229.933 267.147 232.22C265.934 234.46 265.327 236.98 265.327 239.78C265.327 242.58 265.934 245.123 267.147 247.41C268.407 249.65 270.087 251.447 272.187 252.8C274.334 254.107 276.714 254.76 279.327 254.76ZM304.393 257V208L307.473 207.23V257H304.393Z" fill="white"/>
<path d="M144.172 186V128.773H162.023C169.602 128.773 175.253 129.88 178.977 132.094C182.701 134.307 184.562 137.992 184.562 143.148C184.562 143.982 184.51 144.802 184.406 145.609C184.302 146.417 184.068 147.341 183.703 148.383C183.339 149.398 182.857 150.323 182.258 151.156C181.659 151.99 180.826 152.81 179.758 153.617C178.69 154.398 177.44 155.01 176.008 155.453C179.549 156.312 182.258 157.966 184.133 160.414C186.008 162.836 186.945 165.831 186.945 169.398C186.945 174.789 185.031 178.904 181.203 181.742C177.401 184.581 172.128 186 165.383 186H144.172ZM154.758 178.344H163.938C172.062 178.344 176.125 175.167 176.125 168.812C176.125 165.609 175.109 163.305 173.078 161.898C171.047 160.492 167.909 159.789 163.664 159.789H154.758V178.344ZM154.758 152.406H163.82C170.826 152.406 174.328 149.737 174.328 144.398C174.328 141.404 173.312 139.346 171.281 138.227C169.276 137.107 166.073 136.547 161.672 136.547H154.758V152.406ZM206.633 186.82C202.648 186.82 199.419 185.727 196.945 183.539C194.497 181.326 193.273 178.148 193.273 174.008C193.273 169.555 194.732 166.26 197.648 164.125C200.565 161.964 204.966 160.596 210.852 160.023C211.659 159.919 212.531 159.815 213.469 159.711C214.406 159.607 215.461 159.503 216.633 159.398C217.805 159.294 218.729 159.203 219.406 159.125V156.859C219.406 154.255 218.807 152.367 217.609 151.195C216.411 149.997 214.589 149.398 212.141 149.398C208.651 149.398 204.341 150.375 199.211 152.328C199.185 152.25 198.755 151.065 197.922 148.773C197.089 146.482 196.659 145.31 196.633 145.258C201.685 143.096 207.154 142.016 213.039 142.016C218.82 142.016 223.026 143.279 225.656 145.805C228.286 148.305 229.602 152.367 229.602 157.992V186H222.023C221.997 185.896 221.711 185.023 221.164 183.383C220.617 181.742 220.344 180.87 220.344 180.766C218.208 182.849 216.112 184.385 214.055 185.375C212.023 186.339 209.549 186.82 206.633 186.82ZM209.406 179.555C211.776 179.555 213.833 178.995 215.578 177.875C217.349 176.729 218.612 175.349 219.367 173.734V165.453C219.289 165.453 218.599 165.505 217.297 165.609C216.021 165.714 215.331 165.766 215.227 165.766C211.086 166.13 208.052 166.911 206.125 168.109C204.198 169.307 203.234 171.234 203.234 173.891C203.234 175.714 203.768 177.12 204.836 178.109C205.904 179.073 207.427 179.555 209.406 179.555ZM239.953 186V143.07H248.547L249.875 149.633C252.688 145.128 256.763 142.875 262.102 142.875C263.221 142.875 264.133 142.927 264.836 143.031L264.68 151.586C263.638 151.43 262.557 151.352 261.438 151.352C257.661 151.352 254.836 152.354 252.961 154.359C251.112 156.365 250.188 159.151 250.188 162.719V186H239.953Z" fill="white"/>
<path d="M236.556 16.0917C235.583 21.6873 232.265 26.7017 227.153 30.3021C222.041 33.9024 215.443 35.8722 208.454 35.8841C201.466 35.896 194.507 33.9494 188.734 30.3676C182.962 26.7858 178.722 21.7844 176.72 16.1939L181.134 15.3854C182.836 20.1373 186.439 24.3886 191.346 27.4331C196.253 30.4776 202.168 32.1322 208.108 32.1221C214.049 32.1119 219.657 30.4377 224.002 27.3774C228.347 24.317 231.167 20.0548 231.994 15.2986L236.556 16.0917Z" fill="white"/>
<path d="M388.622 221.686C383.002 220.863 377.901 217.68 374.165 212.666C370.429 207.653 368.284 201.109 368.085 194.124C367.886 187.138 369.646 180.13 373.072 174.263C376.498 168.397 381.384 164.025 386.919 161.873L387.845 166.264C383.14 168.093 378.987 171.809 376.075 176.795C373.163 181.782 371.667 187.739 371.836 193.677C372.005 199.615 373.829 205.177 377.004 209.438C380.18 213.7 384.516 216.405 389.293 217.105L388.622 221.686Z" fill="white"/>
<path d="M21.4884 161.312C27.0371 162.524 31.9043 166.055 35.2818 171.316C38.6593 176.578 40.3438 183.255 40.0556 190.238C39.7673 197.22 37.5237 204.089 33.6972 209.703C29.8708 215.316 24.6918 219.337 19.0205 221.097L18.4023 216.653C23.223 215.156 27.6251 211.739 30.8776 206.967C34.1301 202.196 36.0372 196.357 36.2822 190.422C36.5272 184.487 35.0954 178.811 32.2245 174.339C29.3536 169.866 25.2165 166.866 20.5001 165.835L21.4884 161.312Z" fill="white"/>
<path d="M100.068 354.526C103.279 349.841 108.382 346.66 114.527 345.51C120.673 344.36 127.493 345.312 133.854 348.206C140.216 351.1 145.735 355.763 149.497 361.421C153.258 367.078 155.035 373.389 154.532 379.306L150.182 378.207C150.609 373.177 149.099 367.813 145.901 363.004C142.704 358.195 138.012 354.232 132.605 351.771C127.198 349.311 121.402 348.503 116.178 349.48C110.953 350.457 106.617 353.161 103.887 357.143L100.068 354.526Z" fill="white"/>
<path d="M304.179 42.9132C301.033 47.6418 295.975 50.8931 289.846 52.1272C283.716 53.3613 276.884 52.504 270.483 49.6976C264.083 46.8912 258.5 42.3046 254.661 36.6995C250.822 31.0945 248.958 24.8083 249.379 18.885L253.745 19.9246C253.387 24.9594 254.971 30.3026 258.234 35.0669C261.497 39.8312 266.243 43.7298 271.683 46.1153C277.124 48.5007 282.931 49.2294 288.141 48.1804C293.351 47.1314 297.65 44.3678 300.325 40.3485L304.179 42.9132Z" fill="white"/>
<path d="M166.301 17.4436C167.365 23.0226 166.03 28.8852 162.517 34.0578C159.004 39.2304 153.526 43.4017 146.991 45.8789C140.456 48.3561 133.258 48.9902 126.593 47.6758C119.927 46.3614 114.196 43.1777 110.349 38.6534L114.194 36.3393C117.463 40.185 122.335 42.8912 128.001 44.0084C133.667 45.1256 139.785 44.5867 145.339 42.481C150.894 40.3754 155.551 36.8298 158.537 32.4331C161.522 28.0364 162.657 23.0532 161.753 18.311L166.301 17.4436Z" fill="white"/>
<path d="M253.035 380.321C251.429 374.873 252.183 368.908 255.172 363.416C258.161 357.924 263.205 353.236 269.466 350.13C275.726 347.025 282.827 345.688 289.589 346.343C296.352 346.998 302.368 349.605 306.639 353.731L303.039 356.41C299.409 352.904 294.295 350.688 288.547 350.131C282.799 349.574 276.764 350.71 271.442 353.35C266.12 355.99 261.833 359.974 259.293 364.643C256.752 369.311 256.111 374.381 257.476 379.012L253.035 380.321Z" fill="white"/>
<path d="M321.137 343.301C317.682 338.794 316.244 332.955 317.061 326.756C317.879 320.558 320.903 314.371 325.631 309.225C330.359 304.078 336.506 300.281 343.052 298.464C349.599 296.647 356.15 296.92 361.617 299.237L359.22 303.03C354.572 301.061 349.004 300.829 343.44 302.373C337.876 303.918 332.65 307.145 328.631 311.52C324.613 315.894 322.042 321.153 321.347 326.422C320.653 331.691 321.875 336.653 324.812 340.485L321.137 343.301Z" fill="white"/>
<path d="M101.451 44.0061C104.496 48.8005 105.415 54.7426 104.055 60.8455C102.696 66.9484 99.1394 72.8449 93.977 77.5556C88.8145 82.2663 82.3567 85.5078 75.676 86.7418C68.9953 87.9757 62.4937 87.1278 57.2511 84.3389L59.9728 80.7711C64.4291 83.1416 69.9554 83.8623 75.634 82.8135C81.3126 81.7646 86.8017 79.0094 91.1898 75.0053C95.5778 71.0011 98.6007 65.9892 99.7564 60.8017C100.912 55.6142 100.131 50.5635 97.543 46.4882L101.451 44.0061Z" fill="white"/>
<path d="M354.021 89.7437C349.39 93.0308 343.503 94.2538 337.338 93.2096C331.173 92.1654 325.102 88.9167 320.132 84.0032C315.162 79.0897 311.593 72.8069 310.018 66.1985C308.442 59.59 308.955 53.0534 311.47 47.6744L315.173 50.2092C313.035 54.7814 312.599 60.3374 313.938 65.9546C315.278 71.5718 318.311 76.9121 322.536 81.0886C326.76 85.2651 331.921 88.0265 337.161 88.9141C342.401 89.8017 347.405 88.7621 351.342 85.968L354.021 89.7437Z" fill="white"/>
<path d="M48.137 302.525C52.9141 299.453 58.8509 298.501 64.9614 299.826C71.0719 301.151 76.9884 304.674 81.7282 309.81C86.4681 314.945 89.7461 321.385 91.0178 328.058C92.2896 334.732 91.4785 341.238 88.7193 346.497L85.1361 343.795C87.4814 339.325 88.1708 333.795 87.0899 328.123C86.0089 322.45 83.2226 316.977 79.1937 312.611C75.1648 308.246 70.1358 305.251 64.9419 304.125C59.7479 302.999 54.7017 303.808 50.6411 306.42L48.137 302.525Z" fill="white"/>
<path d="M366.641 290.97C361.702 288.166 358.101 283.351 356.436 277.325C354.771 271.298 355.142 264.422 357.489 257.839C359.835 251.256 364.015 245.362 369.334 241.136C374.653 236.909 380.792 234.606 386.73 234.606L386.002 239.034C380.955 239.034 375.737 240.992 371.216 244.584C366.694 248.176 363.141 253.186 361.147 258.782C359.153 264.378 358.837 270.222 360.252 275.345C361.667 280.468 364.728 284.56 368.927 286.943L366.641 290.97Z" fill="white"/>
<path d="M50.9673 93.3718C55.6038 96.6521 58.709 101.801 59.7672 107.963C60.8254 114.126 59.7728 120.931 56.7844 127.248C53.7959 133.565 49.0514 139.015 43.3387 142.692C37.6261 146.369 31.2891 148.052 25.3803 147.462L26.5444 143.128C31.5669 143.63 36.9533 142.199 41.809 139.074C46.6648 135.948 50.6976 131.316 53.2378 125.946C55.778 120.576 56.6727 114.792 55.7732 109.554C54.8738 104.316 52.2344 99.9396 48.2933 97.1515L50.9673 93.3718Z" fill="white"/>
<path d="M383.635 149.726C378.153 151.212 372.206 150.326 366.781 147.217C361.357 144.108 356.781 138.963 353.814 132.635C350.847 126.307 349.667 119.179 350.471 112.433C351.274 105.687 354.013 99.7294 358.231 95.5502L360.831 99.2078C357.245 102.76 354.918 107.824 354.234 113.558C353.551 119.292 354.554 125.352 357.076 130.73C359.598 136.108 363.488 140.482 368.099 143.125C372.71 145.767 377.765 146.52 382.424 145.257L383.635 149.726Z" fill="white"/>
<path d="M20.4928 234.396C26.083 233.393 31.9308 234.792 37.0649 238.36C42.199 241.929 46.3105 247.453 48.7165 254.014C51.1226 260.575 51.6784 267.78 50.2916 274.43C48.9049 281.081 45.659 286.778 41.0932 290.575L38.8211 286.705C42.7021 283.478 45.461 278.635 46.6398 272.982C47.8185 267.329 47.3461 261.206 45.3009 255.628C43.2558 250.051 39.761 245.356 35.397 242.323C31.033 239.289 26.0624 238.1 21.3108 238.953L20.4928 234.396Z" fill="white"/>
<path d="M173.87 383.403C174.962 377.929 178.306 373.069 183.364 369.605C188.422 366.141 194.9 364.274 201.757 364.304C208.614 364.335 215.452 366.26 221.17 369.772C226.889 373.284 231.157 378.177 233.288 383.666L228.916 384.532C227.104 379.867 223.477 375.708 218.616 372.723C213.755 369.738 207.943 368.101 202.115 368.075C196.286 368.05 190.78 369.636 186.481 372.581C182.181 375.525 179.339 379.656 178.41 384.309L173.87 383.403Z" fill="white"/>
</g>
<defs>
<clipPath id="clip0_1005_113">
<rect width="406.733" height="400" fill="white"/>
</clipPath>
</defs>
</svg>
